<svg width="41" height="41" viewBox="0 0 41 41" fill="none" xmlns="http://www.w3.org/2000/svg">
<g clip-path="url(#clip0)">
<path d="M40.4417 19.1519L28.2407 6.95101C27.4963 6.2066 26.289 6.2066 25.5446 6.95101C24.8001 7.69557 24.8001 8.90255 25.5446 9.64711L34.4911 18.5936H1.90639C0.853607 18.5936 0 19.4472 0 20.5C0 21.5526 0.853607 22.4064 1.90639 22.4064H34.4911L25.5449 31.3529C24.8004 32.0974 24.8004 33.3044 25.5449 34.049C25.9171 34.4209 26.4051 34.6073 26.893 34.6073C27.3809 34.6073 27.8687 34.4209 28.241 34.049L40.4417 21.848C41.1862 21.1035 41.1862 19.8965 40.4417 19.1519Z" fill="black"/>
</g>
<defs>
<clipPath id="clip0">
<rect width="41" height="41" fill="white"/>
</clipPath>
</defs>
</svg>
