<svg width="24" height="24" viewBox="0 0 24 24" fill="none" xmlns="http://www.w3.org/2000/svg">
<path d="M20.5016 3.49843C15.837 -1.16614 8.16301 -1.16614 3.49843 3.49843C-1.16614 8.16301 -1.16614 15.837 3.49843 20.5016C8.16301 25.1661 15.837 25.1661 20.5016 20.5016C25.1661 15.837 25.1661 8.31348 20.5016 3.49843ZM13.8809 15.536L11.9248 13.5799L9.96865 15.536C9.51724 15.9875 8.91536 15.9875 8.46395 15.536C8.01254 15.0846 8.01254 14.4828 8.46395 14.0313L10.4201 12.0752L8.46395 10.1191C8.01254 9.66771 8.01254 9.06583 8.46395 8.61442C8.91536 8.16301 9.51724 8.16301 9.96865 8.61442L11.9248 10.5705L13.8809 8.61442C14.3323 8.16301 14.9342 8.16301 15.3856 8.61442C15.837 9.06583 15.837 9.66771 15.3856 10.1191L13.4295 12.0752L15.3856 14.0313C15.837 14.4828 15.837 15.0846 15.3856 15.536C15.0846 15.9875 14.3323 15.9875 13.8809 15.536Z" fill="black"/>
</svg>
