<svg width="32" height="32" viewBox="0 0 32 32" fill="none" xmlns="http://www.w3.org/2000/svg">
<g filter="url(#filter0_d)">
<path d="M16 0C9.38487 0 4 5.3858 4 12C4 18.6151 9.38487 24 16 24C22.6148 24 28 18.6151 28 12C28 5.3858 22.6148 0 16 0ZM18.5258 12C18.5258 13.3961 17.3961 14.5267 16 14.5267C14.6036 14.5267 13.4739 13.3961 13.4739 12C13.4739 10.6039 14.6036 9.47388 16 9.47388C17.3961 9.47388 18.5258 10.6039 18.5258 12ZM7.05492 9.0147C8.04786 5.2054 11.3983 2.57222 15.2363 2.17183C16.2856 2.0623 16.2745 3.69976 15.2363 3.80805C12.1229 4.13326 9.42943 6.39297 8.63266 9.44913C8.36656 10.4699 6.78882 10.0364 7.05492 9.0147ZM16 22.0061C11.4351 22.0061 7.56825 18.8877 6.36739 14.7399C6.36584 14.7272 6.36584 14.7195 6.36398 14.7059C6.13811 13.0511 7.04409 12.9976 7.13506 12.9976H11.0254C11.2365 13.0839 11.5635 13.3506 11.9989 14.0768C12.7573 15.5144 14.2465 16.521 15.9663 16.521C17.6288 16.521 19.1174 15.5822 19.9 14.2223C19.9077 14.2087 19.9142 14.2009 19.9225 14.1867C20.3919 13.372 20.7407 13.0879 20.9622 12.9973H24.8634C24.9544 12.9973 25.8607 13.0511 25.6348 14.7056C25.6323 14.7192 25.6323 14.7269 25.6311 14.7396C24.4308 18.8877 20.5649 22.0061 16 22.0061Z" fill="#F32626"/>
</g>
<defs>
<filter id="filter0_d" x="0" y="0" width="32" height="32" filterUnits="userSpaceOnUse" color-interpolation-filters="sRGB">
<feFlood flood-opacity="0" result="BackgroundImageFix"/>
<feColorMatrix in="SourceAlpha" type="matrix" values="0 0 0 0 0 0 0 0 0 0 0 0 0 0 0 0 0 0 127 0"/>
<feOffset dy="4"/>
<feGaussianBlur stdDeviation="2"/>
<feColorMatrix type="matrix" values="0 0 0 0 0 0 0 0 0 0 0 0 0 0 0 0 0 0 0.25 0"/>
<feBlend mode="normal" in2="BackgroundImageFix" result="effect1_dropShadow"/>
<feBlend mode="normal" in="SourceGraphic" in2="effect1_dropShadow" result="shape"/>
</filter>
</defs>
</svg>
