<svg width="24" height="24" viewBox="0 0 24 24" fill="none" xmlns="http://www.w3.org/2000/svg">
<path d="M12 0C5.38487 0 0 5.3858 0 12C0 18.6151 5.38487 24 12 24C18.6148 24 24 18.6151 24 12C24 5.3858 18.6148 0 12 0ZM14.5258 12C14.5258 13.3961 13.3961 14.5267 12 14.5267C10.6036 14.5267 9.47388 13.3961 9.47388 12C9.47388 10.6039 10.6036 9.47388 12 9.47388C13.3961 9.47388 14.5258 10.6039 14.5258 12ZM3.05492 9.0147C4.04786 5.20541 7.39828 2.57222 11.2363 2.17183C12.2856 2.0623 12.2745 3.69976 11.2363 3.80806C8.12294 4.13326 5.42943 6.39297 4.63266 9.44913C4.36656 10.4699 2.78882 10.0364 3.05492 9.0147ZM12 22.0061C7.4351 22.0061 3.56825 18.8877 2.36739 14.7399C2.36584 14.7272 2.36584 14.7195 2.36398 14.7059C2.13811 13.0511 3.04409 12.9976 3.13506 12.9976H7.02542C7.23645 13.0839 7.56351 13.3506 7.99887 14.0768C8.75726 15.5144 10.2465 16.521 11.9663 16.521C13.6288 16.521 15.1174 15.5822 15.9 14.2223C15.9077 14.2087 15.9142 14.2009 15.9225 14.1867C16.3919 13.372 16.7407 13.0879 16.9622 12.9973H20.8634C20.9544 12.9973 21.8607 13.0511 21.6348 14.7056C21.6323 14.7192 21.6323 14.7269 21.6311 14.7396C20.4308 18.8877 16.5649 22.0061 12 22.0061Z" fill="black"/>
</svg>
