<svg width="18" height="18" viewBox="0 0 18 18" fill="none" xmlns="http://www.w3.org/2000/svg">
<path d="M2.00284 11.6931C4.47026 14.1611 8.34884 14.363 11.0514 12.2493L16.5543 17.7528C16.8838 18.0824 17.4176 18.0824 17.7472 17.7528C18.0768 17.4232 18.0768 16.8895 17.7472 16.5599L12.2443 11.0564C14.3377 8.3719 14.156 4.47588 11.6886 2.00791C9.01083 -0.669864 4.67949 -0.668739 2.00284 2.00791C-0.667614 4.6778 -0.667614 9.02264 2.00284 11.6931ZM3.19578 3.20027C5.2138 1.18225 8.4782 1.18281 10.4957 3.20027C12.5075 5.21268 12.5075 8.4872 10.4957 10.5002C8.47763 12.5182 5.21324 12.5176 3.19578 10.5002C1.18337 8.48776 1.18337 5.21268 3.19578 3.20027Z" fill="black"/>
</svg>
